<mxfile host="app.diagrams.net" agent="Mozilla/5.0 (Macintosh; Intel Mac OS X 10_15_7) AppleWebKit/537.36 (KHTML, like Gecko) Chrome/140.0.0.0 Safari/537.36" scale="1" border="0" version="28.2.2">
  <diagram id="JIO4U5yVURzNJD8ckPtT" name="Page-1">
    <mxGraphModel dx="976" dy="568" grid="1" gridSize="10" guides="1" tooltips="1" connect="1" arrows="1" fold="1" page="1" pageScale="1" pageWidth="850" pageHeight="1100" math="0" shadow="0">
      <root>
        <mxCell id="0" />
        <mxCell id="1" parent="0" />
        <mxCell id="0w6tVqdGQsQ0FDEPdYHO-1" value="" style="swimlane;startSize=0;" parent="1" vertex="1">
          <mxGeometry x="40" y="160" width="640" height="200" as="geometry" />
        </mxCell>
        <mxCell id="0w6tVqdGQsQ0FDEPdYHO-10" style="edgeStyle=orthogonalEdgeStyle;rounded=0;orthogonalLoop=1;jettySize=auto;html=1;exitX=0.5;exitY=1;exitDx=0;exitDy=0;entryX=0.5;entryY=0;entryDx=0;entryDy=0;" parent="0w6tVqdGQsQ0FDEPdYHO-1" source="0w6tVqdGQsQ0FDEPdYHO-3" target="0w6tVqdGQsQ0FDEPdYHO-4" edge="1">
          <mxGeometry relative="1" as="geometry" />
        </mxCell>
        <mxCell id="0w6tVqdGQsQ0FDEPdYHO-3" value="Dataset construction" style="rounded=1;whiteSpace=wrap;html=1;" parent="0w6tVqdGQsQ0FDEPdYHO-1" vertex="1">
          <mxGeometry x="40" y="40" width="80" height="40" as="geometry" />
        </mxCell>
        <mxCell id="0w6tVqdGQsQ0FDEPdYHO-11" style="edgeStyle=orthogonalEdgeStyle;rounded=0;orthogonalLoop=1;jettySize=auto;html=1;exitX=1;exitY=0.5;exitDx=0;exitDy=0;entryX=0;entryY=0.5;entryDx=0;entryDy=0;" parent="0w6tVqdGQsQ0FDEPdYHO-1" source="0w6tVqdGQsQ0FDEPdYHO-4" target="0w6tVqdGQsQ0FDEPdYHO-5" edge="1">
          <mxGeometry relative="1" as="geometry" />
        </mxCell>
        <mxCell id="0w6tVqdGQsQ0FDEPdYHO-4" value="Training dataset" style="rounded=1;whiteSpace=wrap;html=1;" parent="0w6tVqdGQsQ0FDEPdYHO-1" vertex="1">
          <mxGeometry x="40" y="120" width="80" height="40" as="geometry" />
        </mxCell>
        <mxCell id="BEG_7vFPSuf3Xr36pm9X-6" style="edgeStyle=orthogonalEdgeStyle;rounded=0;orthogonalLoop=1;jettySize=auto;html=1;exitX=1;exitY=0.5;exitDx=0;exitDy=0;entryX=0;entryY=0.5;entryDx=0;entryDy=0;" edge="1" parent="0w6tVqdGQsQ0FDEPdYHO-1" source="0w6tVqdGQsQ0FDEPdYHO-5" target="0w6tVqdGQsQ0FDEPdYHO-6">
          <mxGeometry relative="1" as="geometry" />
        </mxCell>
        <mxCell id="0w6tVqdGQsQ0FDEPdYHO-5" value="Learner" style="rounded=1;whiteSpace=wrap;html=1;" parent="0w6tVqdGQsQ0FDEPdYHO-1" vertex="1">
          <mxGeometry x="160" y="120" width="80" height="40" as="geometry" />
        </mxCell>
        <mxCell id="BEG_7vFPSuf3Xr36pm9X-1" style="edgeStyle=orthogonalEdgeStyle;rounded=0;orthogonalLoop=1;jettySize=auto;html=1;exitX=1;exitY=0.75;exitDx=0;exitDy=0;entryX=0;entryY=0.75;entryDx=0;entryDy=0;" edge="1" parent="0w6tVqdGQsQ0FDEPdYHO-1" source="0w6tVqdGQsQ0FDEPdYHO-6" target="0w6tVqdGQsQ0FDEPdYHO-8">
          <mxGeometry relative="1" as="geometry" />
        </mxCell>
        <mxCell id="BEG_7vFPSuf3Xr36pm9X-9" style="edgeStyle=orthogonalEdgeStyle;rounded=0;orthogonalLoop=1;jettySize=auto;html=1;exitX=0.5;exitY=0;exitDx=0;exitDy=0;entryX=0.5;entryY=1;entryDx=0;entryDy=0;" edge="1" parent="0w6tVqdGQsQ0FDEPdYHO-1" source="0w6tVqdGQsQ0FDEPdYHO-6" target="0w6tVqdGQsQ0FDEPdYHO-7">
          <mxGeometry relative="1" as="geometry" />
        </mxCell>
        <mxCell id="0w6tVqdGQsQ0FDEPdYHO-6" value="Trained model" style="rounded=1;whiteSpace=wrap;html=1;" parent="0w6tVqdGQsQ0FDEPdYHO-1" vertex="1">
          <mxGeometry x="280" y="120" width="80" height="40" as="geometry" />
        </mxCell>
        <mxCell id="0w6tVqdGQsQ0FDEPdYHO-7" value="Model repository" style="rounded=1;whiteSpace=wrap;html=1;" parent="0w6tVqdGQsQ0FDEPdYHO-1" vertex="1">
          <mxGeometry x="280" y="40" width="80" height="40" as="geometry" />
        </mxCell>
        <mxCell id="0w6tVqdGQsQ0FDEPdYHO-16" style="edgeStyle=orthogonalEdgeStyle;rounded=0;orthogonalLoop=1;jettySize=auto;html=1;exitX=1;exitY=0.5;exitDx=0;exitDy=0;entryX=0;entryY=0.5;entryDx=0;entryDy=0;" parent="0w6tVqdGQsQ0FDEPdYHO-1" source="0w6tVqdGQsQ0FDEPdYHO-8" target="0w6tVqdGQsQ0FDEPdYHO-15" edge="1">
          <mxGeometry relative="1" as="geometry" />
        </mxCell>
        <mxCell id="0w6tVqdGQsQ0FDEPdYHO-8" value="Evaluator" style="rounded=1;whiteSpace=wrap;html=1;" parent="0w6tVqdGQsQ0FDEPdYHO-1" vertex="1">
          <mxGeometry x="400" y="120" width="80" height="40" as="geometry" />
        </mxCell>
        <mxCell id="0w6tVqdGQsQ0FDEPdYHO-15" value="Deploy" style="rounded=1;whiteSpace=wrap;html=1;" parent="0w6tVqdGQsQ0FDEPdYHO-1" vertex="1">
          <mxGeometry x="520" y="120" width="80" height="40" as="geometry" />
        </mxCell>
        <mxCell id="0w6tVqdGQsQ0FDEPdYHO-17" value="Online learning pipeline" style="text;html=1;strokeColor=none;fillColor=none;align=center;verticalAlign=middle;whiteSpace=wrap;rounded=0;" parent="0w6tVqdGQsQ0FDEPdYHO-1" vertex="1">
          <mxGeometry x="480" width="160" height="30" as="geometry" />
        </mxCell>
        <mxCell id="0w6tVqdGQsQ0FDEPdYHO-9" style="edgeStyle=orthogonalEdgeStyle;rounded=0;orthogonalLoop=1;jettySize=auto;html=1;exitX=0.5;exitY=1;exitDx=0;exitDy=0;entryX=0.5;entryY=0;entryDx=0;entryDy=0;" parent="1" source="0w6tVqdGQsQ0FDEPdYHO-2" target="0w6tVqdGQsQ0FDEPdYHO-3" edge="1">
          <mxGeometry relative="1" as="geometry" />
        </mxCell>
        <mxCell id="0w6tVqdGQsQ0FDEPdYHO-2" value="Data source" style="rounded=1;whiteSpace=wrap;html=1;" parent="1" vertex="1">
          <mxGeometry x="80" y="80" width="80" height="40" as="geometry" />
        </mxCell>
        <mxCell id="0w6tVqdGQsQ0FDEPdYHO-18" value="" style="swimlane;startSize=0;" parent="1" vertex="1">
          <mxGeometry x="160" y="400" width="400" height="280" as="geometry" />
        </mxCell>
        <mxCell id="0w6tVqdGQsQ0FDEPdYHO-35" style="edgeStyle=orthogonalEdgeStyle;rounded=0;orthogonalLoop=1;jettySize=auto;html=1;exitX=0.5;exitY=1;exitDx=0;exitDy=0;entryX=0.5;entryY=0;entryDx=0;entryDy=0;" parent="0w6tVqdGQsQ0FDEPdYHO-18" source="0w6tVqdGQsQ0FDEPdYHO-19" target="0w6tVqdGQsQ0FDEPdYHO-20" edge="1">
          <mxGeometry relative="1" as="geometry" />
        </mxCell>
        <mxCell id="0w6tVqdGQsQ0FDEPdYHO-19" value="Trained ML model" style="rounded=1;whiteSpace=wrap;html=1;" parent="0w6tVqdGQsQ0FDEPdYHO-18" vertex="1">
          <mxGeometry x="280" y="40" width="80" height="40" as="geometry" />
        </mxCell>
        <mxCell id="0w6tVqdGQsQ0FDEPdYHO-36" style="edgeStyle=orthogonalEdgeStyle;rounded=0;orthogonalLoop=1;jettySize=auto;html=1;exitX=0.5;exitY=1;exitDx=0;exitDy=0;entryX=0.5;entryY=0;entryDx=0;entryDy=0;" parent="0w6tVqdGQsQ0FDEPdYHO-18" source="0w6tVqdGQsQ0FDEPdYHO-20" target="0w6tVqdGQsQ0FDEPdYHO-21" edge="1">
          <mxGeometry relative="1" as="geometry" />
        </mxCell>
        <mxCell id="0w6tVqdGQsQ0FDEPdYHO-39" style="edgeStyle=orthogonalEdgeStyle;rounded=0;orthogonalLoop=1;jettySize=auto;html=1;exitX=0.5;exitY=0;exitDx=0;exitDy=0;entryX=0.5;entryY=1;entryDx=0;entryDy=0;" parent="0w6tVqdGQsQ0FDEPdYHO-18" source="0w6tVqdGQsQ0FDEPdYHO-20" target="0w6tVqdGQsQ0FDEPdYHO-19" edge="1">
          <mxGeometry relative="1" as="geometry" />
        </mxCell>
        <mxCell id="0w6tVqdGQsQ0FDEPdYHO-20" value="Ranking service" style="rounded=1;whiteSpace=wrap;html=1;" parent="0w6tVqdGQsQ0FDEPdYHO-18" vertex="1">
          <mxGeometry x="280" y="120" width="80" height="40" as="geometry" />
        </mxCell>
        <mxCell id="0w6tVqdGQsQ0FDEPdYHO-40" style="edgeStyle=orthogonalEdgeStyle;rounded=0;orthogonalLoop=1;jettySize=auto;html=1;exitX=0.5;exitY=0;exitDx=0;exitDy=0;" parent="0w6tVqdGQsQ0FDEPdYHO-18" source="0w6tVqdGQsQ0FDEPdYHO-21" target="0w6tVqdGQsQ0FDEPdYHO-20" edge="1">
          <mxGeometry relative="1" as="geometry" />
        </mxCell>
        <mxCell id="0w6tVqdGQsQ0FDEPdYHO-21" value="Feature computation" style="rounded=1;whiteSpace=wrap;html=1;" parent="0w6tVqdGQsQ0FDEPdYHO-18" vertex="1">
          <mxGeometry x="280" y="200" width="80" height="40" as="geometry" />
        </mxCell>
        <mxCell id="BEG_7vFPSuf3Xr36pm9X-10" style="edgeStyle=orthogonalEdgeStyle;rounded=0;orthogonalLoop=1;jettySize=auto;html=1;exitX=1;exitY=0.5;exitDx=0;exitDy=0;entryX=0;entryY=0.5;entryDx=0;entryDy=0;" edge="1" parent="0w6tVqdGQsQ0FDEPdYHO-18" source="0w6tVqdGQsQ0FDEPdYHO-24" target="0w6tVqdGQsQ0FDEPdYHO-28">
          <mxGeometry relative="1" as="geometry" />
        </mxCell>
        <mxCell id="0w6tVqdGQsQ0FDEPdYHO-24" value="Events filtering" style="rounded=1;whiteSpace=wrap;html=1;" parent="0w6tVqdGQsQ0FDEPdYHO-18" vertex="1">
          <mxGeometry x="40" y="120" width="80" height="40" as="geometry" />
        </mxCell>
        <mxCell id="0w6tVqdGQsQ0FDEPdYHO-31" style="edgeStyle=orthogonalEdgeStyle;rounded=0;orthogonalLoop=1;jettySize=auto;html=1;exitX=0.5;exitY=1;exitDx=0;exitDy=0;entryX=0.5;entryY=0;entryDx=0;entryDy=0;" parent="0w6tVqdGQsQ0FDEPdYHO-18" source="0w6tVqdGQsQ0FDEPdYHO-25" target="0w6tVqdGQsQ0FDEPdYHO-24" edge="1">
          <mxGeometry relative="1" as="geometry" />
        </mxCell>
        <mxCell id="0w6tVqdGQsQ0FDEPdYHO-25" value="Events data" style="rounded=1;whiteSpace=wrap;html=1;" parent="0w6tVqdGQsQ0FDEPdYHO-18" vertex="1">
          <mxGeometry x="40" y="40" width="80" height="40" as="geometry" />
        </mxCell>
        <mxCell id="0w6tVqdGQsQ0FDEPdYHO-34" style="edgeStyle=orthogonalEdgeStyle;rounded=0;orthogonalLoop=1;jettySize=auto;html=1;exitX=1;exitY=0.5;exitDx=0;exitDy=0;entryX=0;entryY=0.5;entryDx=0;entryDy=0;" parent="0w6tVqdGQsQ0FDEPdYHO-18" source="0w6tVqdGQsQ0FDEPdYHO-28" target="0w6tVqdGQsQ0FDEPdYHO-20" edge="1">
          <mxGeometry relative="1" as="geometry" />
        </mxCell>
        <mxCell id="0w6tVqdGQsQ0FDEPdYHO-28" value="Candidate events" style="rounded=1;whiteSpace=wrap;html=1;" parent="0w6tVqdGQsQ0FDEPdYHO-18" vertex="1">
          <mxGeometry x="160" y="120" width="80" height="40" as="geometry" />
        </mxCell>
        <mxCell id="0w6tVqdGQsQ0FDEPdYHO-42" value="Prediction pipeline" style="text;html=1;strokeColor=none;fillColor=none;align=center;verticalAlign=middle;whiteSpace=wrap;rounded=0;" parent="0w6tVqdGQsQ0FDEPdYHO-18" vertex="1">
          <mxGeometry width="120" height="30" as="geometry" />
        </mxCell>
        <mxCell id="BEG_7vFPSuf3Xr36pm9X-11" style="edgeStyle=orthogonalEdgeStyle;rounded=0;orthogonalLoop=1;jettySize=auto;html=1;exitX=0.5;exitY=0;exitDx=0;exitDy=0;entryX=0;entryY=0.5;entryDx=0;entryDy=0;" edge="1" parent="1" source="0w6tVqdGQsQ0FDEPdYHO-22" target="0w6tVqdGQsQ0FDEPdYHO-21">
          <mxGeometry relative="1" as="geometry" />
        </mxCell>
        <mxCell id="0w6tVqdGQsQ0FDEPdYHO-22" value="Feature store" style="rounded=1;whiteSpace=wrap;html=1;" parent="1" vertex="1">
          <mxGeometry x="320" y="720" width="80" height="40" as="geometry" />
        </mxCell>
        <mxCell id="BEG_7vFPSuf3Xr36pm9X-4" style="edgeStyle=orthogonalEdgeStyle;rounded=0;orthogonalLoop=1;jettySize=auto;html=1;exitX=0.5;exitY=0;exitDx=0;exitDy=0;entryX=0.5;entryY=1;entryDx=0;entryDy=0;" edge="1" parent="1" source="0w6tVqdGQsQ0FDEPdYHO-23" target="0w6tVqdGQsQ0FDEPdYHO-21">
          <mxGeometry relative="1" as="geometry" />
        </mxCell>
        <mxCell id="0w6tVqdGQsQ0FDEPdYHO-23" value="Raw data" style="rounded=1;whiteSpace=wrap;html=1;" parent="1" vertex="1">
          <mxGeometry x="440" y="720" width="80" height="40" as="geometry" />
        </mxCell>
        <mxCell id="0w6tVqdGQsQ0FDEPdYHO-32" style="edgeStyle=orthogonalEdgeStyle;rounded=0;orthogonalLoop=1;jettySize=auto;html=1;exitX=1;exitY=0.5;exitDx=0;exitDy=0;entryX=0;entryY=0.5;entryDx=0;entryDy=0;" parent="1" source="0w6tVqdGQsQ0FDEPdYHO-27" target="0w6tVqdGQsQ0FDEPdYHO-24" edge="1">
          <mxGeometry relative="1" as="geometry" />
        </mxCell>
        <mxCell id="0w6tVqdGQsQ0FDEPdYHO-27" value="User" style="rounded=1;whiteSpace=wrap;html=1;" parent="1" vertex="1">
          <mxGeometry x="40" y="520" width="80" height="40" as="geometry" />
        </mxCell>
        <mxCell id="0w6tVqdGQsQ0FDEPdYHO-29" value="Top k events" style="rounded=1;whiteSpace=wrap;html=1;" parent="1" vertex="1">
          <mxGeometry x="600" y="520" width="80" height="40" as="geometry" />
        </mxCell>
        <mxCell id="0w6tVqdGQsQ0FDEPdYHO-30" style="edgeStyle=orthogonalEdgeStyle;rounded=0;orthogonalLoop=1;jettySize=auto;html=1;exitX=1;exitY=0.5;exitDx=0;exitDy=0;entryX=0;entryY=0.5;entryDx=0;entryDy=0;" parent="1" source="0w6tVqdGQsQ0FDEPdYHO-20" target="0w6tVqdGQsQ0FDEPdYHO-29" edge="1">
          <mxGeometry relative="1" as="geometry" />
        </mxCell>
        <mxCell id="0w6tVqdGQsQ0FDEPdYHO-41" style="edgeStyle=orthogonalEdgeStyle;rounded=0;orthogonalLoop=1;jettySize=auto;html=1;exitX=0.5;exitY=1;exitDx=0;exitDy=0;entryX=0.5;entryY=0;entryDx=0;entryDy=0;" parent="1" source="0w6tVqdGQsQ0FDEPdYHO-15" target="0w6tVqdGQsQ0FDEPdYHO-19" edge="1">
          <mxGeometry relative="1" as="geometry" />
        </mxCell>
      </root>
    </mxGraphModel>
  </diagram>
</mxfile>
